<svg id="compassIcon" data-name="Layer 1" xmlns="http://www.w3.org/2000/svg" viewBox="0 0 398 398">
  <defs>
    <style>
      .cls-1 {
        fill: #fefefe;
      }

      .cls-2 {
        fill: #333;
      }

      .cls-3 {
        fill: #fcfcfc;
      }

      .cls-4 {
        fill: #fbfbfb;
      }

      .cls-5 {
        fill: #f9f9f9;
      }

      .cls-6 {
        fill: #fafafa;
      }
      #compassIcon .compass_pin {
        transition: all 200ms linear;
        transform: rotate(0deg);
        transform-origin: center;
      }
      #compassIcon:hover .compass_pin {
        transform: rotate(20deg);
      }
    </style>
  </defs>
  <title>Compass</title>
  <path class="cls-1" d="M346.87,213.32c-4.05,61.47-52.75,117.29-114,130.69a111.69,111.69,0,0,1-19.68,3c-2.23-3.78-1.56-7.82-1-11.84,1.47-2.43,4-2.78,6.46-3.14A133.56,133.56,0,0,0,331.93,218.27c.35-2.47.31-5.08,3.11-6.34C339,212,343.15,211,346.87,213.32Z"/>
  <path class="cls-1" d="M186.06,347a140.79,140.79,0,0,1-77.94-31.11c-32.79-26.34-51.67-60.46-55.51-102.59,3.73-2.12,7.73-1.72,11.74-1.31,3.09,1.8,2.85,5.12,3.3,8a128.45,128.45,0,0,0,10.14,34.31c15.8,34.05,41.17,57.87,76.33,71.16a126,126,0,0,0,27,6.68c2.31.33,4.65.66,6.24,2.7C187.77,338.94,188.05,343.09,186.06,347Z"/>
  <path class="cls-1" d="M52.47,186.47c6.81-67.12,54.19-119,120.69-132.09,4.23-.83,8.58-1,12.88-1.53,2,3.89,1.66,8.06,1.39,12.22-1.91,2.26-4.7,2.37-7.28,2.75-28.87,4.16-53.66,16.89-74.29,37.09A129.63,129.63,0,0,0,68,178.23c-.53,3.21-.31,6.73-2.91,9.34C60.74,188.45,56.52,188.4,52.47,186.47Z"/>
  <path class="cls-1" d="M213.19,52.89C241.33,55,266.53,65,288.8,82c33.61,25.75,52.74,60,57.95,101.94.1.82,0,1.66.06,2.49-3.7,2.21-7.71,1.55-11.69,1.28-2.64-1.32-2.85-3.86-3.21-6.35-4.51-30.78-18-57-40.47-78.43a130,130,0,0,0-71.55-35.06c-3.06-.46-6.46-.48-8.1-4C211.94,60.22,211,56.36,213.19,52.89Z"/>
  <path class="cls-2" d="M186.06,347a18.71,18.71,0,0,1,.72-12c.58-5.79,7.33-10.33,14.26-9.6,6.71.71,11.32,4.54,11.67,9.69a18.31,18.31,0,0,1,.45,11.94C205.68,359.13,193.94,359.12,186.06,347Z"/>
  <path class="cls-2" d="M213.19,52.89a17.21,17.21,0,0,1-.64,11.93c-.76,6-7.67,10.45-14.86,9.48-6.13-.83-10.29-4.4-10.94-9.4A19.27,19.27,0,0,1,186,52.85C193.77,40.63,205.64,40.65,213.19,52.89Z"/>
  <path class="cls-2" d="M334.73,186.92a19.07,19.07,0,0,1,12.08-.45c12,7.09,12.07,19.5.06,26.85a19.12,19.12,0,0,1-12.12-.36c-7.43-1.57-11.8-10.7-8.5-18.41C327.83,190.88,329.41,186.67,334.73,186.92Z"/>
  <path class="cls-2" d="M52.47,186.47a19.34,19.34,0,0,1,12.28.49,3.29,3.29,0,0,1,1-.07c5.31,1.17,8.56,6.68,8.26,14-.27,6.7-3.74,11.2-9.25,12-4,1.25-8,1.95-12.13.43C40.52,206.59,40.46,193.74,52.47,186.47Z"/>
  <path class="cls-3" d="M199.48,347.41c-3.1-.3-5.38-1.94-5.5-5.54s1.84-5.72,5.34-5.94c3.83-.24,6,2,6.07,5.7C205.43,345.14,203.34,347.11,199.48,347.41Z"/>
  <path class="cls-4" d="M199.36,64.05c-3.25-.55-5.4-2.31-5.4-5.83,0-3.8,2.29-5.88,5.89-5.79a5.28,5.28,0,0,1,5.55,5.7C205.36,61.8,203.13,63.75,199.36,64.05Z"/>
  <path class="cls-3" d="M347.16,200c-.26,3.68-2.39,5.75-5.77,5.72s-5.58-2-5.7-5.68a5.75,5.75,0,0,1,6-5.94C345.16,194.45,347,196.53,347.16,200Z"/>
  <path class="cls-5" d="M52.11,199.85c.36-3.48,2.22-5.65,5.67-5.74,3.75-.1,5.95,2.26,5.95,5.86a5.45,5.45,0,0,1-5.62,5.75C54.55,205.76,52.39,203.56,52.11,199.85Z"/>
  <g class="compass_pin">
    <path class="cls-2" d="M171.39,199.85q8.51-38.7,17-77.4c2.51-11.36,5.09-22.71,7.66-34,.46-2.06.45-4.64,3.38-4.81,3.32-.19,3.34,2.54,3.85,4.79q12.22,54.48,24.46,109a16.81,16.81,0,0,1,.15,2.47c-1.73,2.41-4.33,2.28-6.81,2.19-3.2-.12-5.17,1.05-6.59,4.1-2.9,6.25-7.92,9.81-15,9.84s-12.09-3.62-14.78-10c-1.38-3.26-3.47-4-6.57-4C175.73,202.08,173.11,202.28,171.39,199.85Z"/>
    <path class="cls-1" d="M171.39,199.85c1.66,0,3.34.11,5,0,5.15-.51,9.07-.41,10.78,6.34,1.44,5.71,7,8.19,13,8s11.1-3.11,12.52-8.87c1.28-5.2,3.79-6,8.21-5.47a60.15,60.15,0,0,0,7,0c-2.22,14-5.88,27.59-8.89,41.36-5.18,23.69-10.61,47.33-15.86,71-.47,2.11-.91,4.06-3.45,4.12s-3.09-2.14-3.52-4.09q-12.45-55.92-24.85-111.86A1.44,1.44,0,0,1,171.39,199.85Z"/>
    <path class="cls-6" d="M205.53,199.83c-.21,3.32-2,5.67-5.4,5.85-3.54.18-6-1.82-6.12-5.62s2.19-5.91,5.78-5.95C203.22,194.08,205.14,196.28,205.53,199.83Z"/>
  </g>
</svg>
